<svg width="71" height="71" viewBox="0 0 71 71" fill="none" xmlns="http://www.w3.org/2000/svg">
<circle cx="35.5" cy="35.5" r="35.5" fill="#1E1E1E"/>
<path fill-rule="evenodd" clip-rule="evenodd" d="M20.4436 36.0051C20.4429 33.5214 21.0369 31.0736 22.176 28.8664C23.3151 26.6593 24.9661 24.757 26.991 23.3187C29.0159 21.8804 31.3557 20.9478 33.8149 20.599C36.274 20.2503 38.7809 20.4954 41.1259 21.314C41.6825 21.5079 42.2934 21.4727 42.8241 21.2162C43.3549 20.9597 43.7619 20.5029 43.9559 19.9462C44.1498 19.3896 44.1146 18.7787 43.8581 18.2479C43.6016 17.7172 43.1447 17.3101 42.5881 17.1162C38.4933 15.6876 34.0451 15.6288 29.9139 16.9485C25.7828 18.2682 22.1925 20.895 19.6843 24.4329C17.1761 27.9708 15.8858 32.2282 16.0079 36.5633C16.1301 40.8984 17.658 45.0764 20.3615 48.4674C23.065 51.8585 26.7974 54.279 30.9963 55.364C35.1952 56.449 39.6331 56.1397 43.6409 54.4829C47.6488 52.826 51.0095 49.9113 53.2165 46.178C55.4235 42.4448 56.3572 38.0953 55.877 33.7851C55.8449 33.495 55.7559 33.2141 55.6153 32.9584C55.4746 32.7027 55.2849 32.4772 55.0571 32.2948C54.8293 32.1124 54.5678 31.9766 54.2875 31.8953C54.0073 31.8139 53.7137 31.7886 53.4236 31.8207C53.1335 31.8528 52.8526 31.9417 52.5969 32.0824C52.3412 32.223 52.1157 32.4127 51.9333 32.6405C51.7509 32.8683 51.6151 33.1298 51.5338 33.4101C51.4524 33.6904 51.4271 33.9839 51.4592 34.274C51.6932 36.376 51.4962 38.5036 50.8801 40.5269C50.264 42.5501 49.2418 44.4265 47.8759 46.0413C46.5101 47.6561 44.8293 48.9754 42.9363 49.9186C41.0432 50.8618 38.9778 51.409 36.8661 51.5269C34.7544 51.6448 32.6408 51.3308 30.6546 50.6041C28.6684 49.8774 26.8512 48.7534 25.3141 47.3006C23.7771 45.8478 22.5524 44.0968 21.715 42.1547C20.8775 40.2126 20.445 38.1201 20.4436 36.0051ZM53.2214 24.1429C53.6116 23.7009 53.8101 23.1219 53.7735 22.5335C53.7368 21.9451 53.4679 21.3953 53.0258 21.0051C52.5838 20.6149 52.0049 20.4164 51.4165 20.453C50.828 20.4897 50.2782 20.7586 49.8881 21.2007L35.5881 37.3784L28.5148 31.6162C28.2886 31.4318 28.0283 31.2937 27.7488 31.2099C27.4692 31.126 27.1759 31.098 26.8856 31.1276C26.2992 31.1871 25.7606 31.4772 25.3881 31.934C25.2037 32.1602 25.0656 32.4204 24.9817 32.7C24.8979 32.9795 24.8699 33.2728 24.8994 33.5631C24.959 34.1495 25.2491 34.6882 25.7059 35.0607L34.437 42.1718C34.8818 42.5337 35.4493 42.7096 36.0208 42.6628C36.5923 42.616 37.1236 42.3501 37.5036 41.9207L53.2214 24.1429Z" fill="#00C174"/>
</svg>
